<mxfile host="app.diagrams.net" agent="Mozilla/5.0 (Windows NT 10.0; Win64; x64) AppleWebKit/537.36 (KHTML, like Gecko) Chrome/132.0.0.0 Safari/537.36 Edg/132.0.0.0" version="26.0.6">
  <diagram name="Página-1" id="iyFEMaDfnkG7Ul4L8r2j">
    <mxGraphModel dx="2493" dy="781" grid="1" gridSize="10" guides="1" tooltips="1" connect="1" arrows="1" fold="1" page="1" pageScale="1" pageWidth="827" pageHeight="1169" math="0" shadow="0">
      <root>
        <mxCell id="0" />
        <mxCell id="1" parent="0" />
        <mxCell id="yci7wobkQLUBNopfSDrR-73" value="Centralizado" style="rounded=1;arcSize=3;whiteSpace=wrap;html=1;align=center;verticalAlign=top;dashed=1;dashPattern=8 8;fillColor=none;" parent="1" vertex="1">
          <mxGeometry x="220" y="60" width="350" height="880" as="geometry" />
        </mxCell>
        <mxCell id="yci7wobkQLUBNopfSDrR-72" value="Distribuído" style="rounded=1;arcSize=3;whiteSpace=wrap;html=1;align=center;verticalAlign=top;dashed=1;dashPattern=8 8;fillColor=none;" parent="1" vertex="1">
          <mxGeometry x="-580" y="60" width="720" height="880" as="geometry" />
        </mxCell>
        <mxCell id="oOvvZ7wgvRaAnm2Rwaql-43" style="edgeStyle=orthogonalEdgeStyle;rounded=0;orthogonalLoop=1;jettySize=auto;html=1;" parent="1" source="oOvvZ7wgvRaAnm2Rwaql-1" target="oOvvZ7wgvRaAnm2Rwaql-34" edge="1">
          <mxGeometry relative="1" as="geometry">
            <Array as="points">
              <mxPoint x="-430" y="380" />
              <mxPoint x="-430" y="300" />
            </Array>
          </mxGeometry>
        </mxCell>
        <mxCell id="oOvvZ7wgvRaAnm2Rwaql-44" style="edgeStyle=orthogonalEdgeStyle;rounded=0;orthogonalLoop=1;jettySize=auto;html=1;" parent="1" source="oOvvZ7wgvRaAnm2Rwaql-1" target="oOvvZ7wgvRaAnm2Rwaql-33" edge="1">
          <mxGeometry relative="1" as="geometry">
            <Array as="points">
              <mxPoint x="-430" y="380" />
              <mxPoint x="-430" y="260" />
            </Array>
          </mxGeometry>
        </mxCell>
        <mxCell id="oOvvZ7wgvRaAnm2Rwaql-46" style="edgeStyle=orthogonalEdgeStyle;rounded=0;orthogonalLoop=1;jettySize=auto;html=1;" parent="1" source="oOvvZ7wgvRaAnm2Rwaql-1" target="oOvvZ7wgvRaAnm2Rwaql-35" edge="1">
          <mxGeometry relative="1" as="geometry">
            <Array as="points">
              <mxPoint x="-430" y="380" />
              <mxPoint x="-430" y="340" />
            </Array>
          </mxGeometry>
        </mxCell>
        <mxCell id="oOvvZ7wgvRaAnm2Rwaql-47" style="edgeStyle=orthogonalEdgeStyle;rounded=0;orthogonalLoop=1;jettySize=auto;html=1;" parent="1" source="oOvvZ7wgvRaAnm2Rwaql-1" target="oOvvZ7wgvRaAnm2Rwaql-36" edge="1">
          <mxGeometry relative="1" as="geometry">
            <Array as="points">
              <mxPoint x="-460" y="380" />
              <mxPoint x="-460" y="380" />
            </Array>
          </mxGeometry>
        </mxCell>
        <mxCell id="yci7wobkQLUBNopfSDrR-3" style="edgeStyle=orthogonalEdgeStyle;rounded=0;orthogonalLoop=1;jettySize=auto;html=1;" parent="1" source="oOvvZ7wgvRaAnm2Rwaql-1" target="yci7wobkQLUBNopfSDrR-2" edge="1">
          <mxGeometry relative="1" as="geometry">
            <Array as="points">
              <mxPoint x="-360" y="350" />
              <mxPoint x="-360" y="350" />
            </Array>
          </mxGeometry>
        </mxCell>
        <mxCell id="oOvvZ7wgvRaAnm2Rwaql-1" value="PREGRADO" style="rounded=0;whiteSpace=wrap;html=1;" parent="1" vertex="1">
          <mxGeometry x="-400" y="360" width="80" height="40" as="geometry" />
        </mxCell>
        <mxCell id="oOvvZ7wgvRaAnm2Rwaql-8" style="edgeStyle=orthogonalEdgeStyle;rounded=0;orthogonalLoop=1;jettySize=auto;html=1;" parent="1" source="oOvvZ7wgvRaAnm2Rwaql-17" target="oOvvZ7wgvRaAnm2Rwaql-1" edge="1">
          <mxGeometry relative="1" as="geometry" />
        </mxCell>
        <mxCell id="oOvvZ7wgvRaAnm2Rwaql-49" style="edgeStyle=orthogonalEdgeStyle;rounded=0;orthogonalLoop=1;jettySize=auto;html=1;" parent="1" source="oOvvZ7wgvRaAnm2Rwaql-2" target="oOvvZ7wgvRaAnm2Rwaql-38" edge="1">
          <mxGeometry relative="1" as="geometry">
            <mxPoint x="-430" y="420" as="targetPoint" />
            <Array as="points">
              <mxPoint x="-430" y="540" />
              <mxPoint x="-430" y="460" />
            </Array>
          </mxGeometry>
        </mxCell>
        <mxCell id="oOvvZ7wgvRaAnm2Rwaql-50" style="edgeStyle=orthogonalEdgeStyle;rounded=0;orthogonalLoop=1;jettySize=auto;html=1;" parent="1" source="oOvvZ7wgvRaAnm2Rwaql-2" target="oOvvZ7wgvRaAnm2Rwaql-39" edge="1">
          <mxGeometry relative="1" as="geometry">
            <Array as="points">
              <mxPoint x="-430" y="540" />
              <mxPoint x="-430" y="500" />
            </Array>
          </mxGeometry>
        </mxCell>
        <mxCell id="oOvvZ7wgvRaAnm2Rwaql-51" style="edgeStyle=orthogonalEdgeStyle;rounded=0;orthogonalLoop=1;jettySize=auto;html=1;" parent="1" source="oOvvZ7wgvRaAnm2Rwaql-2" target="oOvvZ7wgvRaAnm2Rwaql-40" edge="1">
          <mxGeometry relative="1" as="geometry">
            <Array as="points">
              <mxPoint x="-460" y="540" />
              <mxPoint x="-460" y="540" />
            </Array>
          </mxGeometry>
        </mxCell>
        <mxCell id="oOvvZ7wgvRaAnm2Rwaql-52" style="edgeStyle=orthogonalEdgeStyle;rounded=0;orthogonalLoop=1;jettySize=auto;html=1;" parent="1" source="oOvvZ7wgvRaAnm2Rwaql-2" target="oOvvZ7wgvRaAnm2Rwaql-41" edge="1">
          <mxGeometry relative="1" as="geometry">
            <Array as="points">
              <mxPoint x="-430" y="540" />
              <mxPoint x="-430" y="580" />
            </Array>
          </mxGeometry>
        </mxCell>
        <mxCell id="oOvvZ7wgvRaAnm2Rwaql-56" style="edgeStyle=orthogonalEdgeStyle;rounded=0;orthogonalLoop=1;jettySize=auto;html=1;" parent="1" source="oOvvZ7wgvRaAnm2Rwaql-2" target="oOvvZ7wgvRaAnm2Rwaql-55" edge="1">
          <mxGeometry relative="1" as="geometry">
            <Array as="points">
              <mxPoint x="-430" y="540" />
              <mxPoint x="-430" y="620" />
            </Array>
          </mxGeometry>
        </mxCell>
        <mxCell id="oOvvZ7wgvRaAnm2Rwaql-2" value="ASIGNATURA" style="rounded=0;whiteSpace=wrap;html=1;" parent="1" vertex="1">
          <mxGeometry x="-420" y="520" width="120" height="40" as="geometry" />
        </mxCell>
        <mxCell id="oOvvZ7wgvRaAnm2Rwaql-9" style="edgeStyle=orthogonalEdgeStyle;rounded=0;orthogonalLoop=1;jettySize=auto;html=1;" parent="1" source="oOvvZ7wgvRaAnm2Rwaql-3" target="oOvvZ7wgvRaAnm2Rwaql-15" edge="1">
          <mxGeometry relative="1" as="geometry" />
        </mxCell>
        <mxCell id="oOvvZ7wgvRaAnm2Rwaql-54" style="edgeStyle=orthogonalEdgeStyle;rounded=0;orthogonalLoop=1;jettySize=auto;html=1;" parent="1" source="oOvvZ7wgvRaAnm2Rwaql-3" target="oOvvZ7wgvRaAnm2Rwaql-42" edge="1">
          <mxGeometry relative="1" as="geometry" />
        </mxCell>
        <mxCell id="yci7wobkQLUBNopfSDrR-71" style="edgeStyle=orthogonalEdgeStyle;rounded=0;orthogonalLoop=1;jettySize=auto;html=1;" parent="1" source="oOvvZ7wgvRaAnm2Rwaql-3" target="yci7wobkQLUBNopfSDrR-70" edge="1">
          <mxGeometry relative="1" as="geometry">
            <Array as="points">
              <mxPoint x="-430" y="700" />
              <mxPoint x="-430" y="740" />
            </Array>
          </mxGeometry>
        </mxCell>
        <mxCell id="oOvvZ7wgvRaAnm2Rwaql-3" value="GRUPO" style="rounded=0;whiteSpace=wrap;html=1;" parent="1" vertex="1">
          <mxGeometry x="-400" y="680" width="80" height="40" as="geometry" />
        </mxCell>
        <mxCell id="oOvvZ7wgvRaAnm2Rwaql-13" style="edgeStyle=orthogonalEdgeStyle;rounded=0;orthogonalLoop=1;jettySize=auto;html=1;" parent="1" source="oOvvZ7wgvRaAnm2Rwaql-22" target="oOvvZ7wgvRaAnm2Rwaql-7" edge="1">
          <mxGeometry relative="1" as="geometry" />
        </mxCell>
        <mxCell id="oOvvZ7wgvRaAnm2Rwaql-68" style="edgeStyle=orthogonalEdgeStyle;rounded=0;orthogonalLoop=1;jettySize=auto;html=1;" parent="1" source="oOvvZ7wgvRaAnm2Rwaql-6" target="oOvvZ7wgvRaAnm2Rwaql-63" edge="1">
          <mxGeometry relative="1" as="geometry">
            <Array as="points">
              <mxPoint x="390" y="620" />
              <mxPoint x="390" y="540" />
            </Array>
          </mxGeometry>
        </mxCell>
        <mxCell id="oOvvZ7wgvRaAnm2Rwaql-69" style="edgeStyle=orthogonalEdgeStyle;rounded=0;orthogonalLoop=1;jettySize=auto;html=1;" parent="1" source="oOvvZ7wgvRaAnm2Rwaql-6" target="oOvvZ7wgvRaAnm2Rwaql-64" edge="1">
          <mxGeometry relative="1" as="geometry">
            <Array as="points">
              <mxPoint x="390" y="620" />
              <mxPoint x="390" y="580" />
            </Array>
          </mxGeometry>
        </mxCell>
        <mxCell id="oOvvZ7wgvRaAnm2Rwaql-70" style="edgeStyle=orthogonalEdgeStyle;rounded=0;orthogonalLoop=1;jettySize=auto;html=1;" parent="1" source="oOvvZ7wgvRaAnm2Rwaql-6" target="oOvvZ7wgvRaAnm2Rwaql-65" edge="1">
          <mxGeometry relative="1" as="geometry" />
        </mxCell>
        <mxCell id="oOvvZ7wgvRaAnm2Rwaql-71" style="edgeStyle=orthogonalEdgeStyle;rounded=0;orthogonalLoop=1;jettySize=auto;html=1;" parent="1" source="oOvvZ7wgvRaAnm2Rwaql-6" target="oOvvZ7wgvRaAnm2Rwaql-66" edge="1">
          <mxGeometry relative="1" as="geometry">
            <Array as="points">
              <mxPoint x="390" y="620" />
              <mxPoint x="390" y="660" />
            </Array>
          </mxGeometry>
        </mxCell>
        <mxCell id="oOvvZ7wgvRaAnm2Rwaql-72" style="edgeStyle=orthogonalEdgeStyle;rounded=0;orthogonalLoop=1;jettySize=auto;html=1;" parent="1" source="oOvvZ7wgvRaAnm2Rwaql-6" target="oOvvZ7wgvRaAnm2Rwaql-67" edge="1">
          <mxGeometry relative="1" as="geometry">
            <Array as="points">
              <mxPoint x="390" y="620" />
              <mxPoint x="390" y="700" />
            </Array>
          </mxGeometry>
        </mxCell>
        <mxCell id="yci7wobkQLUBNopfSDrR-19" style="edgeStyle=orthogonalEdgeStyle;rounded=0;orthogonalLoop=1;jettySize=auto;html=1;" parent="1" source="oOvvZ7wgvRaAnm2Rwaql-6" target="oOvvZ7wgvRaAnm2Rwaql-22" edge="1">
          <mxGeometry relative="1" as="geometry" />
        </mxCell>
        <mxCell id="oOvvZ7wgvRaAnm2Rwaql-6" value="PROFESOR" style="rounded=0;whiteSpace=wrap;html=1;" parent="1" vertex="1">
          <mxGeometry x="280" y="600" width="80" height="40" as="geometry" />
        </mxCell>
        <mxCell id="oOvvZ7wgvRaAnm2Rwaql-60" style="edgeStyle=orthogonalEdgeStyle;rounded=0;orthogonalLoop=1;jettySize=auto;html=1;" parent="1" source="oOvvZ7wgvRaAnm2Rwaql-7" target="oOvvZ7wgvRaAnm2Rwaql-58" edge="1">
          <mxGeometry relative="1" as="geometry">
            <Array as="points">
              <mxPoint x="460" y="780" />
            </Array>
          </mxGeometry>
        </mxCell>
        <mxCell id="oOvvZ7wgvRaAnm2Rwaql-61" style="edgeStyle=orthogonalEdgeStyle;rounded=0;orthogonalLoop=1;jettySize=auto;html=1;" parent="1" source="oOvvZ7wgvRaAnm2Rwaql-7" target="oOvvZ7wgvRaAnm2Rwaql-57" edge="1">
          <mxGeometry relative="1" as="geometry">
            <Array as="points">
              <mxPoint x="390" y="780" />
              <mxPoint x="390" y="820" />
            </Array>
          </mxGeometry>
        </mxCell>
        <mxCell id="oOvvZ7wgvRaAnm2Rwaql-62" style="edgeStyle=orthogonalEdgeStyle;rounded=0;orthogonalLoop=1;jettySize=auto;html=1;" parent="1" source="oOvvZ7wgvRaAnm2Rwaql-7" target="oOvvZ7wgvRaAnm2Rwaql-59" edge="1">
          <mxGeometry relative="1" as="geometry">
            <Array as="points">
              <mxPoint x="390" y="780" />
              <mxPoint x="390" y="860" />
            </Array>
          </mxGeometry>
        </mxCell>
        <mxCell id="oOvvZ7wgvRaAnm2Rwaql-7" value="CLASIFICACIÓN" style="rounded=0;whiteSpace=wrap;html=1;" parent="1" vertex="1">
          <mxGeometry x="260" y="760" width="120" height="40" as="geometry" />
        </mxCell>
        <mxCell id="oOvvZ7wgvRaAnm2Rwaql-16" style="edgeStyle=orthogonalEdgeStyle;rounded=0;orthogonalLoop=1;jettySize=auto;html=1;" parent="1" source="oOvvZ7wgvRaAnm2Rwaql-15" target="oOvvZ7wgvRaAnm2Rwaql-2" edge="1">
          <mxGeometry relative="1" as="geometry" />
        </mxCell>
        <mxCell id="oOvvZ7wgvRaAnm2Rwaql-15" value="Realiza" style="shape=rhombus;double=1;perimeter=rhombusPerimeter;whiteSpace=wrap;html=1;align=center;" parent="1" vertex="1">
          <mxGeometry x="-420" y="590" width="120" height="60" as="geometry" />
        </mxCell>
        <mxCell id="oOvvZ7wgvRaAnm2Rwaql-18" value="" style="edgeStyle=orthogonalEdgeStyle;rounded=0;orthogonalLoop=1;jettySize=auto;html=1;" parent="1" source="oOvvZ7wgvRaAnm2Rwaql-2" target="oOvvZ7wgvRaAnm2Rwaql-17" edge="1">
          <mxGeometry relative="1" as="geometry">
            <mxPoint x="-360" y="520" as="sourcePoint" />
            <mxPoint x="-280" y="400" as="targetPoint" />
          </mxGeometry>
        </mxCell>
        <mxCell id="oOvvZ7wgvRaAnm2Rwaql-17" value="Compone" style="shape=rhombus;double=1;perimeter=rhombusPerimeter;whiteSpace=wrap;html=1;align=center;" parent="1" vertex="1">
          <mxGeometry x="-420" y="430" width="120" height="60" as="geometry" />
        </mxCell>
        <mxCell id="oOvvZ7wgvRaAnm2Rwaql-22" value="Tiene" style="shape=rhombus;double=1;perimeter=rhombusPerimeter;whiteSpace=wrap;html=1;align=center;" parent="1" vertex="1">
          <mxGeometry x="260" y="670" width="120" height="60" as="geometry" />
        </mxCell>
        <mxCell id="oOvvZ7wgvRaAnm2Rwaql-28" style="edgeStyle=orthogonalEdgeStyle;rounded=0;orthogonalLoop=1;jettySize=auto;html=1;" parent="1" source="oOvvZ7wgvRaAnm2Rwaql-26" target="oOvvZ7wgvRaAnm2Rwaql-27" edge="1">
          <mxGeometry relative="1" as="geometry" />
        </mxCell>
        <mxCell id="oOvvZ7wgvRaAnm2Rwaql-31" style="edgeStyle=orthogonalEdgeStyle;rounded=0;orthogonalLoop=1;jettySize=auto;html=1;" parent="1" source="oOvvZ7wgvRaAnm2Rwaql-26" target="oOvvZ7wgvRaAnm2Rwaql-30" edge="1">
          <mxGeometry relative="1" as="geometry" />
        </mxCell>
        <mxCell id="oOvvZ7wgvRaAnm2Rwaql-74" style="edgeStyle=orthogonalEdgeStyle;rounded=0;orthogonalLoop=1;jettySize=auto;html=1;" parent="1" source="oOvvZ7wgvRaAnm2Rwaql-26" target="oOvvZ7wgvRaAnm2Rwaql-73" edge="1">
          <mxGeometry relative="1" as="geometry" />
        </mxCell>
        <mxCell id="oOvvZ7wgvRaAnm2Rwaql-26" value="DICTAR" style="shape=ext;margin=3;double=1;whiteSpace=wrap;html=1;align=center;" parent="1" vertex="1">
          <mxGeometry x="-400" y="840" width="80" height="40" as="geometry" />
        </mxCell>
        <mxCell id="oOvvZ7wgvRaAnm2Rwaql-29" style="edgeStyle=orthogonalEdgeStyle;rounded=0;orthogonalLoop=1;jettySize=auto;html=1;" parent="1" source="oOvvZ7wgvRaAnm2Rwaql-27" target="oOvvZ7wgvRaAnm2Rwaql-6" edge="1">
          <mxGeometry relative="1" as="geometry">
            <Array as="points">
              <mxPoint x="180" y="860" />
              <mxPoint x="180" y="620" />
            </Array>
          </mxGeometry>
        </mxCell>
        <mxCell id="oOvvZ7wgvRaAnm2Rwaql-27" value="Incluye" style="shape=rhombus;double=1;perimeter=rhombusPerimeter;whiteSpace=wrap;html=1;align=center;" parent="1" vertex="1">
          <mxGeometry x="-280" y="830" width="120" height="60" as="geometry" />
        </mxCell>
        <mxCell id="oOvvZ7wgvRaAnm2Rwaql-32" style="edgeStyle=orthogonalEdgeStyle;rounded=0;orthogonalLoop=1;jettySize=auto;html=1;" parent="1" source="oOvvZ7wgvRaAnm2Rwaql-30" target="oOvvZ7wgvRaAnm2Rwaql-3" edge="1">
          <mxGeometry relative="1" as="geometry" />
        </mxCell>
        <mxCell id="oOvvZ7wgvRaAnm2Rwaql-30" value="Asigna" style="shape=rhombus;double=1;perimeter=rhombusPerimeter;whiteSpace=wrap;html=1;align=center;" parent="1" vertex="1">
          <mxGeometry x="-420" y="750" width="120" height="60" as="geometry" />
        </mxCell>
        <mxCell id="oOvvZ7wgvRaAnm2Rwaql-33" value="Código" style="ellipse;whiteSpace=wrap;html=1;align=center;fontStyle=4;" parent="1" vertex="1">
          <mxGeometry x="-550" y="240" width="100" height="40" as="geometry" />
        </mxCell>
        <mxCell id="oOvvZ7wgvRaAnm2Rwaql-34" value="Nombre" style="ellipse;whiteSpace=wrap;html=1;align=center;" parent="1" vertex="1">
          <mxGeometry x="-550" y="280" width="100" height="40" as="geometry" />
        </mxCell>
        <mxCell id="oOvvZ7wgvRaAnm2Rwaql-35" value="Créditos" style="ellipse;whiteSpace=wrap;html=1;align=center;" parent="1" vertex="1">
          <mxGeometry x="-550" y="320" width="100" height="40" as="geometry" />
        </mxCell>
        <mxCell id="oOvvZ7wgvRaAnm2Rwaql-36" value="Nota Mínima Aprobatoria" style="ellipse;whiteSpace=wrap;html=1;align=center;" parent="1" vertex="1">
          <mxGeometry x="-550" y="360" width="100" height="40" as="geometry" />
        </mxCell>
        <mxCell id="oOvvZ7wgvRaAnm2Rwaql-38" value="Código" style="ellipse;whiteSpace=wrap;html=1;align=center;fontStyle=4;" parent="1" vertex="1">
          <mxGeometry x="-550" y="440" width="100" height="40" as="geometry" />
        </mxCell>
        <mxCell id="oOvvZ7wgvRaAnm2Rwaql-39" value="Nombre" style="ellipse;whiteSpace=wrap;html=1;align=center;" parent="1" vertex="1">
          <mxGeometry x="-550" y="480" width="100" height="40" as="geometry" />
        </mxCell>
        <mxCell id="oOvvZ7wgvRaAnm2Rwaql-40" value="Horas&lt;br&gt;Semanales" style="ellipse;whiteSpace=wrap;html=1;align=center;" parent="1" vertex="1">
          <mxGeometry x="-550" y="520" width="100" height="40" as="geometry" />
        </mxCell>
        <mxCell id="oOvvZ7wgvRaAnm2Rwaql-41" value="Num. Máximo Estudiantes" style="ellipse;whiteSpace=wrap;html=1;align=center;" parent="1" vertex="1">
          <mxGeometry x="-550" y="560" width="100" height="40" as="geometry" />
        </mxCell>
        <mxCell id="oOvvZ7wgvRaAnm2Rwaql-42" value="Código" style="ellipse;whiteSpace=wrap;html=1;align=center;fontStyle=4;" parent="1" vertex="1">
          <mxGeometry x="-550" y="680" width="100" height="40" as="geometry" />
        </mxCell>
        <mxCell id="oOvvZ7wgvRaAnm2Rwaql-55" value="Semestre" style="ellipse;whiteSpace=wrap;html=1;align=center;" parent="1" vertex="1">
          <mxGeometry x="-550" y="600" width="100" height="40" as="geometry" />
        </mxCell>
        <mxCell id="oOvvZ7wgvRaAnm2Rwaql-57" value="Núm. Máximo Horas" style="ellipse;whiteSpace=wrap;html=1;align=center;" parent="1" vertex="1">
          <mxGeometry x="410" y="800" width="100" height="40" as="geometry" />
        </mxCell>
        <mxCell id="oOvvZ7wgvRaAnm2Rwaql-58" value="Nombre" style="ellipse;whiteSpace=wrap;html=1;align=center;fontStyle=4;" parent="1" vertex="1">
          <mxGeometry x="410" y="760" width="100" height="40" as="geometry" />
        </mxCell>
        <mxCell id="oOvvZ7wgvRaAnm2Rwaql-59" value="Salario" style="ellipse;whiteSpace=wrap;html=1;align=center;" parent="1" vertex="1">
          <mxGeometry x="410" y="840" width="100" height="40" as="geometry" />
        </mxCell>
        <mxCell id="oOvvZ7wgvRaAnm2Rwaql-63" value="Documento" style="ellipse;whiteSpace=wrap;html=1;align=center;fontStyle=4;" parent="1" vertex="1">
          <mxGeometry x="410" y="520" width="100" height="40" as="geometry" />
        </mxCell>
        <mxCell id="oOvvZ7wgvRaAnm2Rwaql-64" value="Nombre" style="ellipse;whiteSpace=wrap;html=1;align=center;" parent="1" vertex="1">
          <mxGeometry x="410" y="560" width="100" height="40" as="geometry" />
        </mxCell>
        <mxCell id="oOvvZ7wgvRaAnm2Rwaql-65" value="Dirección" style="ellipse;whiteSpace=wrap;html=1;align=center;" parent="1" vertex="1">
          <mxGeometry x="410" y="600" width="100" height="40" as="geometry" />
        </mxCell>
        <mxCell id="oOvvZ7wgvRaAnm2Rwaql-66" value="Teléfono" style="ellipse;whiteSpace=wrap;html=1;align=center;" parent="1" vertex="1">
          <mxGeometry x="410" y="640" width="100" height="40" as="geometry" />
        </mxCell>
        <mxCell id="oOvvZ7wgvRaAnm2Rwaql-67" value="Correo" style="ellipse;whiteSpace=wrap;html=1;align=center;" parent="1" vertex="1">
          <mxGeometry x="410" y="680" width="100" height="40" as="geometry" />
        </mxCell>
        <mxCell id="oOvvZ7wgvRaAnm2Rwaql-73" value="Horas&lt;br&gt;Semanales" style="ellipse;whiteSpace=wrap;html=1;align=center;" parent="1" vertex="1">
          <mxGeometry x="-550" y="840" width="100" height="40" as="geometry" />
        </mxCell>
        <mxCell id="yci7wobkQLUBNopfSDrR-21" style="edgeStyle=orthogonalEdgeStyle;rounded=0;orthogonalLoop=1;jettySize=auto;html=1;" parent="1" source="yci7wobkQLUBNopfSDrR-1" target="yci7wobkQLUBNopfSDrR-5" edge="1">
          <mxGeometry relative="1" as="geometry">
            <Array as="points">
              <mxPoint x="390" y="300" />
              <mxPoint x="390" y="260" />
            </Array>
          </mxGeometry>
        </mxCell>
        <mxCell id="yci7wobkQLUBNopfSDrR-22" style="edgeStyle=orthogonalEdgeStyle;rounded=0;orthogonalLoop=1;jettySize=auto;html=1;" parent="1" source="yci7wobkQLUBNopfSDrR-1" target="yci7wobkQLUBNopfSDrR-8" edge="1">
          <mxGeometry relative="1" as="geometry" />
        </mxCell>
        <mxCell id="yci7wobkQLUBNopfSDrR-23" style="edgeStyle=orthogonalEdgeStyle;rounded=0;orthogonalLoop=1;jettySize=auto;html=1;" parent="1" source="yci7wobkQLUBNopfSDrR-1" target="yci7wobkQLUBNopfSDrR-7" edge="1">
          <mxGeometry relative="1" as="geometry">
            <Array as="points">
              <mxPoint x="390" y="300" />
              <mxPoint x="390" y="340" />
            </Array>
          </mxGeometry>
        </mxCell>
        <mxCell id="yci7wobkQLUBNopfSDrR-1" value="Sede" style="rounded=0;whiteSpace=wrap;html=1;" parent="1" vertex="1">
          <mxGeometry x="280" y="280" width="80" height="40" as="geometry" />
        </mxCell>
        <mxCell id="yci7wobkQLUBNopfSDrR-4" style="edgeStyle=orthogonalEdgeStyle;rounded=0;orthogonalLoop=1;jettySize=auto;html=1;" parent="1" source="yci7wobkQLUBNopfSDrR-2" target="yci7wobkQLUBNopfSDrR-1" edge="1">
          <mxGeometry relative="1" as="geometry">
            <mxPoint x="120" y="380" as="sourcePoint" />
            <Array as="points">
              <mxPoint x="250" y="300" />
              <mxPoint x="250" y="300" />
            </Array>
          </mxGeometry>
        </mxCell>
        <mxCell id="yci7wobkQLUBNopfSDrR-2" value="Pertenece a" style="shape=rhombus;double=1;perimeter=rhombusPerimeter;whiteSpace=wrap;html=1;align=center;" parent="1" vertex="1">
          <mxGeometry x="-420" y="270" width="120" height="60" as="geometry" />
        </mxCell>
        <mxCell id="yci7wobkQLUBNopfSDrR-5" value="Nombre" style="ellipse;whiteSpace=wrap;html=1;align=center;fontStyle=4;" parent="1" vertex="1">
          <mxGeometry x="410" y="240" width="100" height="40" as="geometry" />
        </mxCell>
        <mxCell id="yci7wobkQLUBNopfSDrR-7" value="Correo" style="ellipse;whiteSpace=wrap;html=1;align=center;" parent="1" vertex="1">
          <mxGeometry x="410" y="320" width="100" height="40" as="geometry" />
        </mxCell>
        <mxCell id="yci7wobkQLUBNopfSDrR-8" value="Dirección" style="ellipse;whiteSpace=wrap;html=1;align=center;" parent="1" vertex="1">
          <mxGeometry x="410" y="280" width="100" height="40" as="geometry" />
        </mxCell>
        <mxCell id="yci7wobkQLUBNopfSDrR-13" style="edgeStyle=orthogonalEdgeStyle;rounded=0;orthogonalLoop=1;jettySize=auto;html=1;" parent="1" source="yci7wobkQLUBNopfSDrR-64" target="yci7wobkQLUBNopfSDrR-12" edge="1">
          <mxGeometry relative="1" as="geometry">
            <mxPoint x="320.04761904761926" y="480" as="sourcePoint" />
          </mxGeometry>
        </mxCell>
        <mxCell id="yci7wobkQLUBNopfSDrR-17" style="edgeStyle=orthogonalEdgeStyle;rounded=0;orthogonalLoop=1;jettySize=auto;html=1;" parent="1" source="yci7wobkQLUBNopfSDrR-64" target="yci7wobkQLUBNopfSDrR-16" edge="1">
          <mxGeometry relative="1" as="geometry">
            <mxPoint x="380" y="460" as="sourcePoint" />
          </mxGeometry>
        </mxCell>
        <mxCell id="yci7wobkQLUBNopfSDrR-62" style="edgeStyle=orthogonalEdgeStyle;rounded=0;orthogonalLoop=1;jettySize=auto;html=1;" parent="1" source="yci7wobkQLUBNopfSDrR-64" target="yci7wobkQLUBNopfSDrR-59" edge="1">
          <mxGeometry relative="1" as="geometry">
            <mxPoint x="320.04761904761926" y="440" as="sourcePoint" />
          </mxGeometry>
        </mxCell>
        <mxCell id="yci7wobkQLUBNopfSDrR-20" style="edgeStyle=orthogonalEdgeStyle;rounded=0;orthogonalLoop=1;jettySize=auto;html=1;" parent="1" source="yci7wobkQLUBNopfSDrR-12" target="oOvvZ7wgvRaAnm2Rwaql-6" edge="1">
          <mxGeometry relative="1" as="geometry" />
        </mxCell>
        <mxCell id="yci7wobkQLUBNopfSDrR-12" value="Registra" style="shape=rhombus;double=1;perimeter=rhombusPerimeter;whiteSpace=wrap;html=1;align=center;" parent="1" vertex="1">
          <mxGeometry x="260" y="510" width="120" height="60" as="geometry" />
        </mxCell>
        <mxCell id="yci7wobkQLUBNopfSDrR-16" value="Fecha" style="ellipse;whiteSpace=wrap;html=1;align=center;fontStyle=4;" parent="1" vertex="1">
          <mxGeometry x="410" y="440" width="100" height="40" as="geometry" />
        </mxCell>
        <mxCell id="yci7wobkQLUBNopfSDrR-26" style="edgeStyle=orthogonalEdgeStyle;rounded=0;orthogonalLoop=1;jettySize=auto;html=1;" parent="1" source="yci7wobkQLUBNopfSDrR-24" target="yci7wobkQLUBNopfSDrR-25" edge="1">
          <mxGeometry relative="1" as="geometry" />
        </mxCell>
        <mxCell id="yci7wobkQLUBNopfSDrR-51" style="edgeStyle=orthogonalEdgeStyle;rounded=0;orthogonalLoop=1;jettySize=auto;html=1;" parent="1" source="yci7wobkQLUBNopfSDrR-24" target="yci7wobkQLUBNopfSDrR-44" edge="1">
          <mxGeometry relative="1" as="geometry">
            <Array as="points">
              <mxPoint x="-10" y="540" />
              <mxPoint x="-10" y="420" />
            </Array>
          </mxGeometry>
        </mxCell>
        <mxCell id="yci7wobkQLUBNopfSDrR-52" style="edgeStyle=orthogonalEdgeStyle;rounded=0;orthogonalLoop=1;jettySize=auto;html=1;" parent="1" source="yci7wobkQLUBNopfSDrR-24" target="yci7wobkQLUBNopfSDrR-50" edge="1">
          <mxGeometry relative="1" as="geometry">
            <Array as="points">
              <mxPoint x="-10" y="540" />
              <mxPoint x="-10" y="460" />
            </Array>
          </mxGeometry>
        </mxCell>
        <mxCell id="yci7wobkQLUBNopfSDrR-53" style="edgeStyle=orthogonalEdgeStyle;rounded=0;orthogonalLoop=1;jettySize=auto;html=1;" parent="1" source="yci7wobkQLUBNopfSDrR-24" target="yci7wobkQLUBNopfSDrR-45" edge="1">
          <mxGeometry relative="1" as="geometry" />
        </mxCell>
        <mxCell id="yci7wobkQLUBNopfSDrR-54" style="edgeStyle=orthogonalEdgeStyle;rounded=0;orthogonalLoop=1;jettySize=auto;html=1;" parent="1" source="yci7wobkQLUBNopfSDrR-24" target="yci7wobkQLUBNopfSDrR-46" edge="1">
          <mxGeometry relative="1" as="geometry" />
        </mxCell>
        <mxCell id="yci7wobkQLUBNopfSDrR-55" style="edgeStyle=orthogonalEdgeStyle;rounded=0;orthogonalLoop=1;jettySize=auto;html=1;" parent="1" source="yci7wobkQLUBNopfSDrR-24" target="yci7wobkQLUBNopfSDrR-48" edge="1">
          <mxGeometry relative="1" as="geometry">
            <Array as="points">
              <mxPoint x="-10" y="540" />
              <mxPoint x="-10" y="620" />
            </Array>
          </mxGeometry>
        </mxCell>
        <mxCell id="yci7wobkQLUBNopfSDrR-56" style="edgeStyle=orthogonalEdgeStyle;rounded=0;orthogonalLoop=1;jettySize=auto;html=1;" parent="1" source="yci7wobkQLUBNopfSDrR-24" target="yci7wobkQLUBNopfSDrR-47" edge="1">
          <mxGeometry relative="1" as="geometry" />
        </mxCell>
        <mxCell id="yci7wobkQLUBNopfSDrR-24" value="ESTUDIANTE" style="rounded=0;whiteSpace=wrap;html=1;" parent="1" vertex="1">
          <mxGeometry x="-130" y="520" width="100" height="40" as="geometry" />
        </mxCell>
        <mxCell id="yci7wobkQLUBNopfSDrR-27" style="edgeStyle=orthogonalEdgeStyle;rounded=0;orthogonalLoop=1;jettySize=auto;html=1;" parent="1" source="yci7wobkQLUBNopfSDrR-25" target="oOvvZ7wgvRaAnm2Rwaql-1" edge="1">
          <mxGeometry relative="1" as="geometry">
            <Array as="points">
              <mxPoint x="-80" y="380" />
            </Array>
          </mxGeometry>
        </mxCell>
        <mxCell id="yci7wobkQLUBNopfSDrR-25" value="Pertenece a" style="shape=rhombus;double=1;perimeter=rhombusPerimeter;whiteSpace=wrap;html=1;align=center;" parent="1" vertex="1">
          <mxGeometry x="-140" y="430" width="120" height="60" as="geometry" />
        </mxCell>
        <mxCell id="yci7wobkQLUBNopfSDrR-38" style="edgeStyle=orthogonalEdgeStyle;rounded=0;orthogonalLoop=1;jettySize=auto;html=1;" parent="1" source="yci7wobkQLUBNopfSDrR-28" target="yci7wobkQLUBNopfSDrR-24" edge="1">
          <mxGeometry relative="1" as="geometry" />
        </mxCell>
        <mxCell id="yci7wobkQLUBNopfSDrR-28" value="Pertenece a" style="shape=rhombus;double=1;perimeter=rhombusPerimeter;whiteSpace=wrap;html=1;align=center;" parent="1" vertex="1">
          <mxGeometry x="-140" y="590" width="120" height="60" as="geometry" />
        </mxCell>
        <mxCell id="yci7wobkQLUBNopfSDrR-32" style="edgeStyle=orthogonalEdgeStyle;rounded=0;orthogonalLoop=1;jettySize=auto;html=1;" parent="1" source="yci7wobkQLUBNopfSDrR-31" target="yci7wobkQLUBNopfSDrR-28" edge="1">
          <mxGeometry relative="1" as="geometry" />
        </mxCell>
        <mxCell id="yci7wobkQLUBNopfSDrR-36" style="edgeStyle=orthogonalEdgeStyle;rounded=0;orthogonalLoop=1;jettySize=auto;html=1;" parent="1" source="yci7wobkQLUBNopfSDrR-31" target="yci7wobkQLUBNopfSDrR-35" edge="1">
          <mxGeometry relative="1" as="geometry" />
        </mxCell>
        <mxCell id="yci7wobkQLUBNopfSDrR-42" style="edgeStyle=orthogonalEdgeStyle;rounded=0;orthogonalLoop=1;jettySize=auto;html=1;" parent="1" source="yci7wobkQLUBNopfSDrR-31" target="yci7wobkQLUBNopfSDrR-40" edge="1">
          <mxGeometry relative="1" as="geometry">
            <Array as="points">
              <mxPoint x="-10" y="700" />
              <mxPoint x="-10" y="740" />
            </Array>
          </mxGeometry>
        </mxCell>
        <mxCell id="yci7wobkQLUBNopfSDrR-43" style="edgeStyle=orthogonalEdgeStyle;rounded=0;orthogonalLoop=1;jettySize=auto;html=1;" parent="1" source="yci7wobkQLUBNopfSDrR-31" target="yci7wobkQLUBNopfSDrR-41" edge="1">
          <mxGeometry relative="1" as="geometry">
            <Array as="points">
              <mxPoint x="-10" y="700" />
              <mxPoint x="-10" y="780" />
            </Array>
          </mxGeometry>
        </mxCell>
        <mxCell id="yci7wobkQLUBNopfSDrR-69" style="edgeStyle=orthogonalEdgeStyle;rounded=0;orthogonalLoop=1;jettySize=auto;html=1;" parent="1" source="yci7wobkQLUBNopfSDrR-31" target="yci7wobkQLUBNopfSDrR-68" edge="1">
          <mxGeometry relative="1" as="geometry" />
        </mxCell>
        <mxCell id="yci7wobkQLUBNopfSDrR-31" value="CALIFICAR" style="shape=ext;margin=3;double=1;whiteSpace=wrap;html=1;align=center;" parent="1" vertex="1">
          <mxGeometry x="-120" y="680" width="80" height="40" as="geometry" />
        </mxCell>
        <mxCell id="yci7wobkQLUBNopfSDrR-37" style="edgeStyle=orthogonalEdgeStyle;rounded=0;orthogonalLoop=1;jettySize=auto;html=1;" parent="1" source="yci7wobkQLUBNopfSDrR-35" target="oOvvZ7wgvRaAnm2Rwaql-3" edge="1">
          <mxGeometry relative="1" as="geometry" />
        </mxCell>
        <mxCell id="yci7wobkQLUBNopfSDrR-35" value="Califica en" style="shape=rhombus;double=1;perimeter=rhombusPerimeter;whiteSpace=wrap;html=1;align=center;" parent="1" vertex="1">
          <mxGeometry x="-280" y="670" width="120" height="60" as="geometry" />
        </mxCell>
        <mxCell id="yci7wobkQLUBNopfSDrR-40" value="Porcentaje" style="ellipse;whiteSpace=wrap;html=1;align=center;" parent="1" vertex="1">
          <mxGeometry x="10" y="720" width="100" height="40" as="geometry" />
        </mxCell>
        <mxCell id="yci7wobkQLUBNopfSDrR-41" value="Valor" style="ellipse;whiteSpace=wrap;html=1;align=center;" parent="1" vertex="1">
          <mxGeometry x="10" y="760" width="100" height="40" as="geometry" />
        </mxCell>
        <mxCell id="yci7wobkQLUBNopfSDrR-44" value="Código" style="ellipse;whiteSpace=wrap;html=1;align=center;fontStyle=4;" parent="1" vertex="1">
          <mxGeometry x="10" y="400" width="100" height="40" as="geometry" />
        </mxCell>
        <mxCell id="yci7wobkQLUBNopfSDrR-45" value="Nombre" style="ellipse;whiteSpace=wrap;html=1;align=center;" parent="1" vertex="1">
          <mxGeometry x="10" y="480" width="100" height="40" as="geometry" />
        </mxCell>
        <mxCell id="yci7wobkQLUBNopfSDrR-46" value="Dirección" style="ellipse;whiteSpace=wrap;html=1;align=center;" parent="1" vertex="1">
          <mxGeometry x="10" y="520" width="100" height="40" as="geometry" />
        </mxCell>
        <mxCell id="yci7wobkQLUBNopfSDrR-47" value="Teléfono" style="ellipse;whiteSpace=wrap;html=1;align=center;" parent="1" vertex="1">
          <mxGeometry x="10" y="560" width="100" height="40" as="geometry" />
        </mxCell>
        <mxCell id="yci7wobkQLUBNopfSDrR-48" value="Correo" style="ellipse;whiteSpace=wrap;html=1;align=center;" parent="1" vertex="1">
          <mxGeometry x="10" y="600" width="100" height="40" as="geometry" />
        </mxCell>
        <mxCell id="yci7wobkQLUBNopfSDrR-50" value="Documento" style="ellipse;whiteSpace=wrap;html=1;align=center;" parent="1" vertex="1">
          <mxGeometry x="10" y="440" width="100" height="40" as="geometry" />
        </mxCell>
        <mxCell id="yci7wobkQLUBNopfSDrR-63" style="edgeStyle=orthogonalEdgeStyle;rounded=0;orthogonalLoop=1;jettySize=auto;html=1;" parent="1" source="yci7wobkQLUBNopfSDrR-59" target="oOvvZ7wgvRaAnm2Rwaql-7" edge="1">
          <mxGeometry relative="1" as="geometry">
            <Array as="points">
              <mxPoint x="520" y="380" />
              <mxPoint x="520" y="900" />
              <mxPoint x="320" y="900" />
            </Array>
          </mxGeometry>
        </mxCell>
        <mxCell id="yci7wobkQLUBNopfSDrR-59" value="Registra" style="shape=rhombus;double=1;perimeter=rhombusPerimeter;whiteSpace=wrap;html=1;align=center;" parent="1" vertex="1">
          <mxGeometry x="260" y="350" width="120" height="60" as="geometry" />
        </mxCell>
        <mxCell id="yci7wobkQLUBNopfSDrR-64" value="PAGAR" style="shape=ext;margin=3;double=1;whiteSpace=wrap;html=1;align=center;" parent="1" vertex="1">
          <mxGeometry x="280" y="440" width="80" height="40" as="geometry" />
        </mxCell>
        <mxCell id="yci7wobkQLUBNopfSDrR-68" value="Código" style="ellipse;whiteSpace=wrap;html=1;align=center;fontStyle=4;" parent="1" vertex="1">
          <mxGeometry x="10" y="680" width="100" height="40" as="geometry" />
        </mxCell>
        <mxCell id="yci7wobkQLUBNopfSDrR-70" value="&lt;span style=&quot;color: rgb(0, 0, 0); font-family: Helvetica; font-size: 12px; font-style: normal; font-variant-ligatures: normal; font-variant-caps: normal; font-weight: 400; letter-spacing: normal; orphans: 2; text-align: center; text-indent: 0px; text-transform: none; widows: 2; word-spacing: 0px; -webkit-text-stroke-width: 0px; white-space: normal; background-color: rgb(251, 251, 251); text-decoration: underline; float: none; display: inline !important;&quot;&gt;Periodo Académico&lt;/span&gt;" style="ellipse;whiteSpace=wrap;html=1;align=center;fontStyle=4;" parent="1" vertex="1">
          <mxGeometry x="-550" y="720" width="100" height="40" as="geometry" />
        </mxCell>
        <mxCell id="bXlyEqd7cgzNubEzRGJr-6" style="edgeStyle=orthogonalEdgeStyle;rounded=0;orthogonalLoop=1;jettySize=auto;html=1;" edge="1" parent="1" source="bXlyEqd7cgzNubEzRGJr-1" target="bXlyEqd7cgzNubEzRGJr-3">
          <mxGeometry relative="1" as="geometry">
            <Array as="points">
              <mxPoint x="390" y="140" />
              <mxPoint x="390" y="120" />
            </Array>
          </mxGeometry>
        </mxCell>
        <mxCell id="bXlyEqd7cgzNubEzRGJr-7" style="edgeStyle=orthogonalEdgeStyle;rounded=0;orthogonalLoop=1;jettySize=auto;html=1;" edge="1" parent="1" source="bXlyEqd7cgzNubEzRGJr-1" target="bXlyEqd7cgzNubEzRGJr-5">
          <mxGeometry relative="1" as="geometry">
            <Array as="points">
              <mxPoint x="390" y="140" />
              <mxPoint x="390" y="160" />
            </Array>
          </mxGeometry>
        </mxCell>
        <mxCell id="bXlyEqd7cgzNubEzRGJr-8" style="edgeStyle=orthogonalEdgeStyle;rounded=0;orthogonalLoop=1;jettySize=auto;html=1;" edge="1" parent="1" source="bXlyEqd7cgzNubEzRGJr-1" target="bXlyEqd7cgzNubEzRGJr-2">
          <mxGeometry relative="1" as="geometry" />
        </mxCell>
        <mxCell id="bXlyEqd7cgzNubEzRGJr-1" value="Usuario" style="rounded=0;whiteSpace=wrap;html=1;" vertex="1" parent="1">
          <mxGeometry x="280" y="120" width="80" height="40" as="geometry" />
        </mxCell>
        <mxCell id="bXlyEqd7cgzNubEzRGJr-9" style="edgeStyle=orthogonalEdgeStyle;rounded=0;orthogonalLoop=1;jettySize=auto;html=1;" edge="1" parent="1" source="bXlyEqd7cgzNubEzRGJr-2" target="yci7wobkQLUBNopfSDrR-1">
          <mxGeometry relative="1" as="geometry" />
        </mxCell>
        <mxCell id="bXlyEqd7cgzNubEzRGJr-2" value="Pertenece a" style="shape=rhombus;double=1;perimeter=rhombusPerimeter;whiteSpace=wrap;html=1;align=center;" vertex="1" parent="1">
          <mxGeometry x="260" y="190" width="120" height="60" as="geometry" />
        </mxCell>
        <mxCell id="bXlyEqd7cgzNubEzRGJr-3" value="Username" style="ellipse;whiteSpace=wrap;html=1;align=center;fontStyle=4;" vertex="1" parent="1">
          <mxGeometry x="410" y="100" width="100" height="40" as="geometry" />
        </mxCell>
        <mxCell id="bXlyEqd7cgzNubEzRGJr-5" value="Password" style="ellipse;whiteSpace=wrap;html=1;align=center;" vertex="1" parent="1">
          <mxGeometry x="410" y="140" width="100" height="40" as="geometry" />
        </mxCell>
      </root>
    </mxGraphModel>
  </diagram>
</mxfile>
